<svg height="472pt" viewBox="-3 0 471 472" width="472pt" xmlns="http://www.w3.org/2000/svg"><path d="m64.5 8h16v72h-16zm0 0" fill="#bc9677"/><path d="m128.5 208v-32l-40-40v-56l-16-8-16 8v56l-40 40v32h-16v264h144v-264zm0 0" fill="#214668"/><path d="m88.5 136h-32l-40 40h112zm0 0" fill="#36607f"/><path d="m16.5 176h112v32h-112zm0 0" fill="#133144"/><path d="m456.5 144-8-88h-8l-6.398438-42.398438c-.800781-8-8-13.601562-16-13.601562h-52c-8 0-14.402343 5.601562-16 13.601562l-5.601562 42.398438h-8l-8 88h-8v328h144v-328zm0 0" fill="#36607f"/><path d="m328.5 144 8-88h112l8 88zm0 0" fill="#447491"/><path d="m418.898438 0h-52c-8 0-14.398438 5.601562-16 13.601562l-6.398438 42.398438h96l-6.398438-42.398438c-.800781-8-7.203124-13.601562-15.203124-13.601562zm0 0" fill="#5489a3"/><path d="m256.5 40h16v104h-16zm0 0" fill="#bfbfbf"/><path d="m192.5 40h16v104h-16zm0 0" fill="#bfbfbf"/><path d="m200.5 64h64v16h-64zm0 0" fill="#bfbfbf"/><path d="m32.5 472v-208h24v-24h32v24h24v208" fill="#bc9677"/><path d="m64.5 288h16v184h-16zm0 0" fill="#214668"/><path d="m56.5 96h32v16h-32zm0 0" fill="#bc9677"/><path d="m40.5 176h16v32h-16zm0 0" fill="#aa9581"/><path d="m88.5 176h16v32h-16zm0 0" fill="#aa9581"/><path d="m384.5 0h16v32h-16zm0 0" fill="#b4cbd1"/><path d="m368.5 48h48v16h-48zm0 0" fill="#15364f"/><path d="m368.5 80h16v40h-16zm0 0" fill="#15364f"/><path d="m400.5 80h16v40h-16zm0 0" fill="#15364f"/><path d="m344.5 200h96v16h-96zm0 0" fill="#15364f"/><path d="m352.5 160h16v24h-16zm0 0" fill="#15364f"/><path d="m384.5 160h16v24h-16zm0 0" fill="#15364f"/><path d="m416.5 160h16v24h-16zm0 0" fill="#15364f"/><path d="m232.5 104-56 56v312h112v-312zm0 0" fill="#214668"/><g fill="#15364f"><path d="m344.5 296h96v16h-96zm0 0"/><path d="m352.5 256h16v24h-16zm0 0"/><path d="m384.5 256h16v24h-16zm0 0"/><path d="m416.5 256h16v24h-16zm0 0"/><path d="m344.5 392h96v16h-96zm0 0"/><path d="m352.5 352h16v24h-16zm0 0"/><path d="m384.5 352h16v24h-16zm0 0"/><path d="m416.5 352h16v24h-16zm0 0"/><path d="m232.5 104 56 56v312h-56zm0 0"/></g><path d="m176.5 291.199219 104 104v1.601562l-53.601562 53.597657 11.203124 11.203124 50.398438-50.402343v-30.398438l-104-104v-1.601562l104-104v-11.199219l-5.601562-5.601562-106.398438 106.402343zm0 0" fill="#bfbfbf"/><path d="m280.5 275.199219v1.601562l-104 104v30.398438l50.398438 50.402343 11.203124-11.203124-53.601562-53.597657v-1.601562l104-104v-30.398438l-106.398438-106.402343-5.601562 5.601562v11.199219zm0 0" fill="#bfbfbf"/><path d="m232.5 104-8 8v360h16v-360zm0 0" fill="#bfbfbf"/></svg>