<svg height="511pt" viewBox="0 -157 511.99991 511" width="511pt" xmlns="http://www.w3.org/2000/svg"><path d="m96.96875 16.945312h-64.359375c-2.160156 0-4.171875 1.113282-5.332031 2.949219l-26.289063 41.609375c-2.039062 3.230469-.808593 7.53125 2.628907 9.171875l17.054687 8.140625c.847656.402344 1.769531.613282 2.707031.613282h37.988282c2.277343 0 4.378906 1.230468 5.5 3.226562l9.398437 16.703125c.648437 1.152344 1.636719 2.074219 2.832031 2.632813l41.980469 19.699218c1.347656.632813 2.429687 1.722656 3.058594 3.078125l12.589843 27.160157c.90625 1.957031 2.734376 3.316406 4.859376 3.613281l75.40625 10.558593c.683593.097657 1.347656.304688 1.964843.617188l57.617188 29.105469c.878906.445312 1.847656.679687 2.832031.679687h15.117188c2.5625 0 4.871093-1.558594 5.847656-3.941406l.554687-1.359375c1.753907-4.289063-1.484375-8.96875-6.085937-8.789063l-1.570313.058594c-3.179687.125-5.957031-2.152344-6.480469-5.316406l-1.140624-6.90625c-.347657-2.089844.363281-4.21875 1.894531-5.675781l12.226562-11.628907c2.65625-2.527343 6.886719-2.265624 9.214844.578126l4.902344 5.980468c1.199219 1.464844 2.988281 2.3125 4.875 2.3125h19.332031c2.339844 0 4.492188-1.304687 5.585938-3.390625l12.226562-23.285156c1.363281-2.589844 4.300781-3.914063 7.125-3.203125l40.203125 10.125c1.300781.328125 2.464844 1.0625 3.324219 2.101562l9.972656 12.054688c1.125 1.359375 2.761719 2.1875 4.515625 2.285156l59.179687 3.234375c.921876.050781 1.847657-.101562 2.707032-.453125l25.109375-10.210937c3.609375-1.46875 5.054687-5.847657 3.039062-9.207031l-36.15625-60.128907c-1.113281-1.851562-3.082031-3.007812-5.230469-3.066406l-41.726562-1.1875c-.785156-.019531-1.558594-.1875-2.28125-.496094l-27.476562-11.6875c-.539063-.230469-1.109376-.378906-1.6875-.453125l-22.539063-2.78125c-1.726563-.210937-3.289063-1.132812-4.320313-2.539062l-19.042968-26.011719c-.984375-1.347656-2.460938-2.25-4.105469-2.507813l-67.363281-10.683593c-.390625-.0625-.777344-.160157-1.148438-.292969l-28.535156-10.292969c-.683594-.246093-1.402344-.371093-2.128906-.371093h-68.777344c-.796875 0-1.585938-.152344-2.328125-.449219l-19.957031-7.96875c-.738282-.296875-1.53125-.449219-2.328125-.449219h-34.082031c-1.566407 0-3.082032.585938-4.242188 1.648438l-14.414062 13.148437c-1.164063 1.0625-2.675782 1.648437-4.242188 1.648437zm0 0" fill="#546e7a"/><path d="m511.082031 141.871094-36.152343-60.132813c-1.113282-1.847656-3.082032-3.003906-5.230469-3.066406l-26.8125-.761719c.433593.414063.824219.878906 1.136719 1.414063l36.152343 61.398437c2.019531 3.425782.574219 7.898438-3.039062 9.398438l-24.367188 10.121094 27.457031 1.5c.925782.050781 1.851563-.101563 2.710938-.453126l25.105469-10.214843c3.613281-1.46875 5.058593-5.847657 3.039062-9.203125zm0 0" fill="#455a64"/><path d="m290.273438 100.523438 60.234374 44.90625-6.828124 12.996093c-1.09375 2.085938-3.246094 3.394531-5.585938 3.394531h-19.335938c-1.882812 0-3.667968-.847656-4.871093-2.308593l-4.90625-5.984375c-2.328125-2.847656-6.550781-3.105469-9.210938-.578125l-1.007812.960937-41.257813-30.753906c-.898437-.667969-2.113281-.667969-3.007812 0l-54.425782 40.574219-53.148437-7.449219 74.800781-55.757812c1.351563-1.007813 1.351563-3.03125 0-4.042969l-115.285156-85.941407 9.1875-8.386718c1.164062-1.0625 2.667969-1.648438 4.246094-1.648438h34.074218c.792969 0 1.589844.152344 2.328126.441406l.917968.363282 97.300782 72.539062c.898437.671875 2.113281.671875 3.007812 0l62.996094-46.96875 26.023437 4.128906c1.636719.257813 3.109375 1.164063 4.101563 2.515626l8.507812 11.625-68.859375 51.332031c-1.34375 1.011719-1.34375 3.03125.003907 4.042969zm0 0" fill="#fdd835"/><g fill="#4caf50"><path d="m320.5 26.878906-62.996094 46.96875c-.894531.667969-2.113281.667969-3.007812 0l-97.289063-72.53125 19.027344 7.605469c.742187.296875 1.535156.453125 2.328125.453125h68.773438c.730468 0 1.453124.121094 2.132812.371094l28.535156 10.285156c.371094.132812.761719.234375 1.144532.296875zm0 0"/><path d="m300.925781 191.210938-.554687 1.351562c-.980469 2.382812-3.285156 3.9375-5.84375 3.9375h-15.121094c-.980469 0-1.945312-.226562-2.832031-.679688l-57.617188-29.101562c-.621093-.308594-1.277343-.527344-1.957031-.617188l-16.929688-2.375 54.425782-40.570312c.898437-.671875 2.113281-.671875 3.007812 0l41.261719 30.75-11.21875 10.667969c-1.535156 1.453125-2.246094 3.589843-1.898437 5.671875l1.144531 6.914062c.523437 3.15625 3.296875 5.433594 6.480469 5.3125l1.566406-.0625c4.601562-.175781 7.847656 4.507813 6.085937 8.800782zm0 0"/></g></svg>